# xmcd
#
# Track frame offsets:
# 150
# 24457
# 66431
# 86312
# 128111
# 155608
# 204692
# 227002
# 262087
# 288772
#
# Disc length: 4397 seconds
#
#
# Revision: 0
# Processed by: cddbd v1.5.1PL0 Copyright (c) Steve Scherf et al.
# Submitted via: FreeRIP 2.931 
#
DISCID=89112b0a
DTITLE=Luther Allison - Live In Paris
DYEAR=1979
DGENRE=Blues
TTITLE0=01 Crazy Jealous
TTITLE1=02 Sweet Little Angel
TTITLE2=03 My Babe
TTITLE3=04 The Thrill Is Gone
TTITLE4=05 Early In The Morning
TTITLE5=06 Tribute To Hound Dog
TTITLE6=07 Luther's Shuffle
TTITLE7=08 I Can't Quit You Babe
TTITLE8=09 I'm Leavin'
TTITLE9=10 Rock Me Baby
EXTD=
EXTT0=
EXTT1=
EXTT2=
EXTT3=
EXTT4=
EXTT5=
EXTT6=
EXTT7=
EXTT8=
EXTT9=
PLAYORDER=
